<?xml version="1.0" encoding="UTF-8"?>
<svg width="330px" height="325px" viewBox="0 0 330 325" version="1.1" xmlns="http://www.w3.org/2000/svg" xmlns:xlink="http://www.w3.org/1999/xlink">
    <title>Group</title>
    <g id="Page-1" stroke="none" stroke-width="1" fill="none" fill-rule="evenodd">
        <g id="iPhone-8" transform="translate(-24.000000, -159.000000)" fill="#D8D8D8" stroke="#979797">
            <g id="Group" transform="translate(6.663087, 167.760864)">
                <path d="M181.796784,166 C170.136327,166 102.796476,36.5992639 102.796476,35.8933013 C102.796476,-11.9644338 260.796476,-11.9644338 260.796476,35.8933013 C260.796476,35.8933013 186.576382,166 181.796784,166 Z" id="Path"></path>
                <path d="M112.986665,295.413011 C101.326208,295.413011 33.9863579,166.012275 33.9863579,165.306312 C33.9863579,117.448577 191.986358,117.448577 191.986358,165.306312 C191.986358,165.306312 117.766263,295.413011 112.986665,295.413011 Z" id="Path" transform="translate(112.986358, 212.413011) rotate(-124.000000) translate(-112.986358, -212.413011) "></path>
                <path d="M252.94167,291.74816 C241.281213,291.74816 173.941362,162.347424 173.941362,161.641461 C173.941362,113.783726 331.941362,113.783726 331.941362,161.641461 C331.941362,161.641461 257.721267,291.74816 252.94167,291.74816 Z" id="Path" transform="translate(252.941362, 208.748160) rotate(-239.000000) translate(-252.941362, -208.748160) "></path>
                <circle id="Oval" fill-rule="nonzero" cx="181.843591" cy="165.660661" r="17"></circle>
            </g>
        </g>
    </g>
</svg>