<?xml version="1.0" encoding="UTF-8"?>
<svg width="297px" height="297px" viewBox="0 0 297 297" version="1.1" xmlns="http://www.w3.org/2000/svg" xmlns:xlink="http://www.w3.org/1999/xlink">
    <title>Group</title>
    <g id="Page-1" stroke="none" stroke-width="1" fill="none" fill-rule="evenodd">
        <g id="iPhone-8-Plus-Copy" transform="translate(-53.000000, -166.000000)" fill="#D8D8D8" stroke="#979797">
            <g id="Group" transform="translate(43.362358, 166.578762)">
                <path d="M88.9449018,16.815689 C104.179094,4.94891972 127.298545,-1.32391042 149.38346,0.966555605 C168.505014,2.94968611 186.860924,11.357719 198.635351,28.1587186 C207.074149,40.2000894 209.35953,54.9782695 205.531802,72.4833413 C201.691978,90.0437307 191.711892,110.334396 175.608259,133.361801 L175.608259,133.361801 L159.62415,133.361801 C161.131327,103.96387 154.784227,81.485053 140.640051,65.9004079 C132.382637,56.802043 118.446899,50.5870659 106.117544,45.1054488 C95.2295918,40.264678 85.5763207,36.0329815 82.4583902,30.7739039 C81.2949143,28.8114451 81.0951298,26.704041 82.1550059,24.3615544 C83.1868484,22.0810265 85.3739448,19.5973083 88.9449018,16.815689 Z" id="Rectangle"></path>
                <path d="M178.05749,52.1434095 C193.291682,40.2766403 216.411133,34.0038101 238.496048,36.2942761 C257.617602,38.2774066 275.973512,46.6854395 287.747939,63.4864392 C296.186737,75.52781 298.472118,90.3059901 294.64439,107.811062 C290.804566,125.371451 280.82448,145.662116 264.720847,168.689521 L264.720847,168.689521 L248.736738,168.689521 C250.243915,139.29159 243.896815,116.812774 229.752639,101.228128 C221.495225,92.1297636 207.559487,85.9147864 195.230132,80.4331694 C184.34218,75.5923985 174.688909,71.3607021 171.570978,66.1016244 C170.407502,64.1391656 170.207718,62.0317616 171.267594,59.689275 C172.299436,57.408747 174.486533,54.9250288 178.05749,52.1434095 Z" id="Rectangle" transform="translate(233.506154, 102.258621) rotate(72.000000) translate(-233.506154, -102.258621) "></path>
                <path d="M171.996135,147.811383 C187.230327,135.944614 210.349778,129.671784 232.434693,131.96225 C251.556247,133.94538 269.912157,142.353413 281.686584,159.154413 C290.125382,171.195784 292.410763,185.973964 288.583035,203.479035 C284.743211,221.039425 274.763125,241.33009 258.659492,264.357495 L258.659492,264.357495 L242.675384,264.357495 C244.18256,234.959564 237.83546,212.480747 223.691284,196.896102 C215.43387,187.797737 201.498132,181.58276 189.168777,176.101143 C178.280825,171.260372 168.627554,167.028676 165.509624,161.769598 C164.346148,159.807139 164.146363,157.699735 165.206239,155.357249 C166.238082,153.076721 168.425178,150.593002 171.996135,147.811383 Z" id="Rectangle" transform="translate(227.444799, 197.926595) rotate(144.000000) translate(-227.444799, -197.926595) "></path>
                <path d="M79.1374238,171.609722 C94.3716157,159.742953 117.491067,153.470122 139.575982,155.760588 C158.697536,157.743719 177.053446,166.151752 188.827873,182.952751 C197.266671,194.994122 199.552052,209.772302 195.724324,227.277374 C191.8845,244.837764 181.904414,265.128429 165.800781,288.155834 L165.800781,288.155834 L149.816672,288.155834 C151.323849,258.757902 144.976749,236.279086 130.832573,220.694441 C122.575159,211.596076 108.639421,205.381099 96.3100657,199.899482 C85.4221139,195.058711 75.7688428,190.827014 72.6509123,185.567937 C71.4874364,183.605478 71.2876518,181.498074 72.347528,179.155587 C73.3793704,176.875059 75.5664669,174.391341 79.1374238,171.609722 Z" id="Rectangle" transform="translate(134.586088, 221.724933) rotate(216.000000) translate(-134.586088, -221.724933) "></path>
                <path d="M27.8089388,90.6499305 C43.0431307,78.7831612 66.162582,72.5103311 88.247497,74.8007971 C107.369051,76.7839276 125.724961,85.1919605 137.499388,101.99296 C145.938186,114.034331 148.223567,128.812511 144.395839,146.317583 C140.556015,163.877972 130.575929,184.168637 114.472296,207.196042 L114.472296,207.196042 L98.4881873,207.196042 C99.9953638,177.798111 93.6482638,155.319295 79.5040881,139.734649 C71.2466738,130.636285 57.3109357,124.421307 44.9815807,118.93969 C34.0936289,114.09892 24.4403578,109.867223 21.3224273,104.608145 C20.1589514,102.645687 19.9591668,100.538283 21.019043,98.1957959 C22.0508854,95.915268 24.2379819,93.4315498 27.8089388,90.6499305 Z" id="Rectangle" transform="translate(83.257603, 140.765142) rotate(288.000000) translate(-83.257603, -140.765142) "></path>
                <circle id="Oval" cx="164.137642" cy="145.921238" r="17"></circle>
            </g>
        </g>
    </g>
</svg>