<?xml version="1.0" encoding="UTF-8"?>
<svg width="341px" height="350px" viewBox="0 0 341 350" version="1.1" xmlns="http://www.w3.org/2000/svg" xmlns:xlink="http://www.w3.org/1999/xlink">
    <title>Group</title>
    <g id="Page-1" stroke="none" stroke-width="1" fill="none" fill-rule="evenodd">
        <g id="iPhone-8" transform="translate(-17.000000, -159.000000)" fill="#D8D8D8" stroke="#979797">
            <g id="Group" transform="translate(17.202397, 159.000000)">
                <path d="M170.297603,0.5 C171.441058,0.5 172.469084,0.858977578 173.394445,1.54561545 C174.389126,2.28369103 175.26365,3.39151863 176.042462,4.82733521 C177.758204,7.99047112 178.993609,12.7137109 179.895493,18.6808073 C182.175488,33.7658386 182.291113,56.7375289 182.297265,82.7010191 L182.297265,82.7010191 L182.297603,87 C182.297603,110.99657 180.90096,132.721476 178.64152,148.447181 C177.494733,156.428816 176.127516,162.859837 174.605461,167.247809 C173.879771,169.339921 173.123465,170.96017 172.334698,172.047282 C171.675873,172.955301 171.011437,173.5 170.297603,173.5 C169.583769,173.5 168.919332,172.955301 168.260508,172.047282 C167.471741,170.96017 166.715435,169.339921 165.989744,167.247809 C164.467689,162.859837 163.100472,156.428816 161.953686,148.447181 C159.694245,132.721476 158.297603,110.99657 158.297603,87.0000393 L158.297603,87.0000393 L158.29794,82.7010983 C158.304093,56.7375289 158.419717,33.7658386 160.699712,18.6808073 C161.601596,12.7137109 162.837001,7.99047112 164.552743,4.82733521 C165.331556,3.39151863 166.20608,2.28369103 167.200761,1.54561545 C168.126121,0.858977578 169.154148,0.5 170.297603,0.5 Z" id="Oval"></path>
                <path d="M222.022705,17.3065045 C223.16616,17.3065045 224.194187,17.6654821 225.119547,18.3521199 C226.114228,19.0901955 226.988752,20.1980231 227.767564,21.6338397 C229.483306,24.7969756 230.718712,29.5202154 231.620596,35.4873118 C233.90059,50.5723431 234.016215,73.5440334 234.022367,99.5075236 L234.022705,103.806504 C234.022705,127.803074 232.626062,149.527981 230.366622,165.253686 C229.219835,173.23532 227.852618,179.666341 226.330563,184.054313 C225.604873,186.146426 224.848567,187.766675 224.0598,188.853786 C223.400976,189.761805 222.736539,190.306504 222.022705,190.306504 C221.308871,190.306504 220.644434,189.761805 219.98561,188.853786 C219.196843,187.766675 218.440537,186.146426 217.714846,184.054313 C216.192792,179.666341 214.825574,173.23532 213.678788,165.253686 C211.419348,149.527981 210.022705,127.803074 210.022705,103.806522 L210.022705,103.806522 L210.022966,99.8516673 C210.02809,73.8976365 210.133589,50.9057174 212.385434,35.7500977 C213.284638,29.6981735 214.520978,24.9056112 216.244298,21.6960029 C217.026294,20.2395711 217.905256,19.1156731 218.906094,18.3668503 C219.836581,17.6706636 220.871088,17.3065045 222.022705,17.3065045 Z" id="Oval" transform="translate(222.022705, 103.806504) rotate(36.000000) translate(-222.022705, -103.806504) "></path>
                <path d="M253.990576,61.3065045 C255.134031,61.3065045 256.162058,61.6654821 257.087418,62.3521199 C258.082099,63.0901955 258.956623,64.1980231 259.735436,65.6338397 C261.451178,68.7969756 262.686583,73.5202154 263.588467,79.4873118 C265.868462,94.5723431 265.984086,117.544033 265.990239,143.507524 L265.990239,143.507524 L265.990576,147.806504 C265.990576,171.803074 264.593934,193.527981 262.334493,209.253686 C261.187707,217.23532 259.82049,223.666341 258.298435,228.054313 C257.572744,230.146426 256.816438,231.766675 256.027671,232.853786 C255.368847,233.761805 254.70441,234.306504 253.990576,234.306504 C253.276742,234.306504 252.612305,233.761805 251.953481,232.853786 C251.164714,231.766675 250.408408,230.146426 249.682718,228.054313 C248.160663,223.666341 246.793446,217.23532 245.646659,209.253686 C243.387219,193.527981 241.990576,171.803074 241.990576,147.806544 L241.990576,147.806544 L241.990914,143.507603 C241.997066,117.544033 242.112691,94.5723431 244.392686,79.4873118 C245.29457,73.5202154 246.529975,68.7969756 248.245717,65.6338397 C249.024529,64.1980231 249.899053,63.0901955 250.893734,62.3521199 C251.819095,61.6654821 252.847121,61.3065045 253.990576,61.3065045 Z" id="Oval" transform="translate(253.990576, 147.806504) rotate(72.000000) translate(-253.990576, -147.806504) "></path>
                <path d="M253.990576,115.693496 C255.134031,115.693496 256.162058,116.052473 257.087418,116.739111 C258.082099,117.477187 258.956623,118.585014 259.735436,120.020831 C261.451178,123.183967 262.686583,127.907206 263.588467,133.874303 C265.868462,148.959334 265.984086,171.931024 265.990239,197.894515 L265.990239,197.894515 L265.990576,202.193496 C265.990576,226.190065 264.593934,247.914972 262.334493,263.640677 C261.187707,271.622311 259.82049,278.053332 258.298435,282.441304 C257.572744,284.533417 256.816438,286.153666 256.027671,287.240777 C255.368847,288.148796 254.70441,288.693496 253.990576,288.693496 C253.276742,288.693496 252.612305,288.148796 251.953481,287.240777 C251.164714,286.153666 250.408408,284.533417 249.682718,282.441304 C248.160663,278.053332 246.793446,271.622311 245.646659,263.640677 C243.387219,247.914972 241.990576,226.190065 241.990576,202.193535 L241.990576,202.193535 L241.990914,197.894594 C241.997066,171.931024 242.112691,148.959334 244.392686,133.874303 C245.29457,127.907206 246.529975,123.183967 248.245717,120.020831 C249.024529,118.585014 249.899053,117.477187 250.893734,116.739111 C251.819095,116.052473 252.847121,115.693496 253.990576,115.693496 Z" id="Oval" transform="translate(253.990576, 202.193496) rotate(108.000000) translate(-253.990576, -202.193496) "></path>
                <path d="M222.022705,159.693496 C223.16616,159.693496 224.194187,160.052473 225.119547,160.739111 C226.114228,161.477187 226.988752,162.585014 227.767564,164.020831 C229.483306,167.183967 230.718712,171.907206 231.620596,177.874303 C233.90059,192.959334 234.016215,215.931024 234.022367,241.894515 L234.022705,246.193496 C234.022705,270.190065 232.626062,291.914972 230.366622,307.640677 C229.219835,315.622311 227.852618,322.053332 226.330563,326.441304 C225.604873,328.533417 224.848567,330.153666 224.0598,331.240777 C223.400976,332.148796 222.736539,332.693496 222.022705,332.693496 C221.308871,332.693496 220.644434,332.148796 219.98561,331.240777 C219.196843,330.153666 218.440537,328.533417 217.714846,326.441304 C216.192792,322.053332 214.825574,315.622311 213.678788,307.640677 C211.419348,291.914972 210.022705,270.190065 210.022705,246.193513 L210.022705,246.193513 L210.022966,242.238658 C210.02809,216.284627 210.133589,193.292708 212.385434,178.137089 C213.284638,172.085165 214.520978,167.292602 216.244298,164.082994 C217.026294,162.626562 217.905256,161.502664 218.906094,160.753841 C219.836581,160.057655 220.871088,159.693496 222.022705,159.693496 Z" id="Oval" transform="translate(222.022705, 246.193496) rotate(144.000000) translate(-222.022705, -246.193496) "></path>
                <path d="M170.297603,176.5 C171.441058,176.5 172.469084,176.858978 173.394445,177.545615 C174.389126,178.283691 175.26365,179.391519 176.042462,180.827335 C177.758204,183.990471 178.993609,188.713711 179.895493,194.680807 C182.175488,209.765839 182.291113,232.737529 182.297265,258.701019 L182.297265,258.701019 L182.297603,263 C182.297603,286.99657 180.90096,308.721476 178.64152,324.447181 C177.494733,332.428816 176.127516,338.859837 174.605461,343.247809 C173.879771,345.339921 173.123465,346.96017 172.334698,348.047282 C171.675873,348.955301 171.011437,349.5 170.297603,349.5 C169.583769,349.5 168.919332,348.955301 168.260508,348.047282 C167.471741,346.96017 166.715435,345.339921 165.989744,343.247809 C164.467689,338.859837 163.100472,332.428816 161.953686,324.447181 C159.694245,308.721476 158.297603,286.99657 158.297603,263.000039 L158.297603,263.000039 L158.29794,258.701098 C158.304093,232.737529 158.419717,209.765839 160.699712,194.680807 C161.601596,188.713711 162.837001,183.990471 164.552743,180.827335 C165.331556,179.391519 166.20608,178.283691 167.200761,177.545615 C168.126121,176.858978 169.154148,176.5 170.297603,176.5 Z" id="Oval" transform="translate(170.297603, 263.000000) rotate(180.000000) translate(-170.297603, -263.000000) "></path>
                <path d="M118.572501,159.693496 C119.715956,159.693496 120.743982,160.052473 121.669342,160.739111 C122.664023,161.477187 123.538547,162.585014 124.31736,164.020831 C126.033102,167.183967 127.268507,171.907206 128.170391,177.874303 C130.450386,192.959334 130.566011,215.931024 130.572163,241.894515 L130.572163,241.894515 L130.572501,246.193496 C130.572501,270.190065 129.175858,291.914972 126.916418,307.640677 C125.769631,315.622311 124.402414,322.053332 122.880359,326.441304 C122.154669,328.533417 121.398363,330.153666 120.609596,331.240777 C119.950771,332.148796 119.286334,332.693496 118.572501,332.693496 C117.858667,332.693496 117.19423,332.148796 116.535405,331.240777 C115.746638,330.153666 114.990333,328.533417 114.264642,326.441304 C112.742587,322.053332 111.37537,315.622311 110.228584,307.640677 C107.969143,291.914972 106.572501,270.190065 106.572501,246.193535 L106.572501,246.193535 L106.572838,241.894594 C106.57899,215.931024 106.694615,192.959334 108.97461,177.874303 C109.876494,171.907206 111.111899,167.183967 112.827641,164.020831 C113.606454,162.585014 114.480978,161.477187 115.475659,160.739111 C116.401019,160.052473 117.429045,159.693496 118.572501,159.693496 Z" id="Oval" transform="translate(118.572501, 246.193496) rotate(216.000000) translate(-118.572501, -246.193496) "></path>
                <path d="M86.6046293,115.693496 C87.7480846,115.693496 88.776111,116.052473 89.7014711,116.739111 C90.6961522,117.477187 91.5706761,118.585014 92.3494889,120.020831 C94.0652308,123.183967 95.300636,127.907206 96.20252,133.874303 C98.4825147,148.959334 98.5981395,171.931024 98.6042918,197.894515 L98.6042918,197.894515 L98.6046293,202.193496 C98.6046293,226.190065 97.2079868,247.914972 94.9485464,263.640677 C93.8017598,271.622311 92.4345427,278.053332 90.9124879,282.441304 C90.1867973,284.533417 89.4304915,286.153666 88.6417245,287.240777 C87.9829001,288.148796 87.3184631,288.693496 86.6046293,288.693496 C85.8907956,288.693496 85.2263586,288.148796 84.5675342,287.240777 C83.7787672,286.153666 83.0224614,284.533417 82.2967708,282.441304 C80.774716,278.053332 79.4074989,271.622311 78.2607123,263.640677 C76.0012719,247.914972 74.6046293,226.190065 74.6046293,202.193535 L74.6046293,202.193535 L74.6049668,197.894594 C74.6111192,171.931024 74.726744,148.959334 77.0067387,133.874303 C77.9086227,127.907206 79.1440279,123.183967 80.8597698,120.020831 C81.6385826,118.585014 82.5131064,117.477187 83.5077876,116.739111 C84.4331477,116.052473 85.4611741,115.693496 86.6046293,115.693496 Z" id="Oval" transform="translate(86.604629, 202.193496) rotate(252.000000) translate(-86.604629, -202.193496) "></path>
                <path d="M86.6046293,61.3065045 C87.7480846,61.3065045 88.776111,61.6654821 89.7014711,62.3521199 C90.6961522,63.0901955 91.5706761,64.1980231 92.3494889,65.6338397 C94.0652308,68.7969756 95.300636,73.5202154 96.20252,79.4873118 C98.4825147,94.5723431 98.5981395,117.544033 98.6042918,143.507524 L98.6042918,143.507524 L98.6046293,147.806504 C98.6046293,171.803074 97.2079868,193.527981 94.9485464,209.253686 C93.8017598,217.23532 92.4345427,223.666341 90.9124879,228.054313 C90.1867973,230.146426 89.4304915,231.766675 88.6417245,232.853786 C87.9829001,233.761805 87.3184631,234.306504 86.6046293,234.306504 C85.8907956,234.306504 85.2263586,233.761805 84.5675342,232.853786 C83.7787672,231.766675 83.0224614,230.146426 82.2967708,228.054313 C80.774716,223.666341 79.4074989,217.23532 78.2607123,209.253686 C76.0012719,193.527981 74.6046293,171.803074 74.6046293,147.806544 L74.6046293,147.806544 L74.6049668,143.507603 C74.6111192,117.544033 74.726744,94.5723431 77.0067387,79.4873118 C77.9086227,73.5202154 79.1440279,68.7969756 80.8597698,65.6338397 C81.6385826,64.1980231 82.5131064,63.0901955 83.5077876,62.3521199 C84.4331477,61.6654821 85.4611741,61.3065045 86.6046293,61.3065045 Z" id="Oval" transform="translate(86.604629, 147.806504) rotate(288.000000) translate(-86.604629, -147.806504) "></path>
                <path d="M118.572501,17.3065045 C119.715956,17.3065045 120.743982,17.6654821 121.669342,18.3521199 C122.664023,19.0901955 123.538547,20.1980231 124.31736,21.6338397 C126.033102,24.7969756 127.268507,29.5202154 128.170391,35.4873118 C130.450386,50.5723431 130.566011,73.5440334 130.572163,99.5075236 L130.572163,99.5075236 L130.572501,103.806504 C130.572501,127.803074 129.175858,149.527981 126.916418,165.253686 C125.769631,173.23532 124.402414,179.666341 122.880359,184.054313 C122.154669,186.146426 121.398363,187.766675 120.609596,188.853786 C119.950771,189.761805 119.286334,190.306504 118.572501,190.306504 C117.858667,190.306504 117.19423,189.761805 116.535405,188.853786 C115.746638,187.766675 114.990333,186.146426 114.264642,184.054313 C112.742587,179.666341 111.37537,173.23532 110.228584,165.253686 C107.969143,149.527981 106.572501,127.803074 106.572501,103.806544 L106.572501,103.806544 L106.572838,99.5076028 C106.57899,73.5440334 106.694615,50.5723431 108.97461,35.4873118 C109.876494,29.5202154 111.111899,24.7969756 112.827641,21.6338397 C113.606454,20.1980231 114.480978,19.0901955 115.475659,18.3521199 C116.401019,17.6654821 117.429045,17.3065045 118.572501,17.3065045 Z" id="Oval" transform="translate(118.572501, 103.806504) rotate(324.000000) translate(-118.572501, -103.806504) "></path>
                <circle id="Oval" fill-rule="nonzero" cx="169.797603" cy="174" r="17"></circle>
            </g>
        </g>
    </g>
</svg>